<?xml version="1.0" encoding="UTF-8"?>
<!-- Generator: Adobe Illustrator 16.0.0, SVG Export Plug-In . SVG Version: 6.00 Build 0)  -->
<!DOCTYPE svg PUBLIC "-//W3C//DTD SVG 1.1//EN" "http://www.w3.org/Graphics/SVG/1.1/DTD/svg11.dtd">
<svg version="1.1" id="Layer_1" xmlns="http://www.w3.org/2000/svg" xmlns:xlink="http://www.w3.org/1999/xlink" x="0px" y="0px" width="264.7px" height="149.3px" viewBox="0 0 264.7 149.3" enable-background="new 0 0 264.7 149.3" xml:space="preserve">
<style>

	
</style>
<g id="wheel1" >
	<path fill="#636567" d="M40.3,89.9c-16.4,0.2-29.5,13.6-29.3,30s13.6,29.5,30,29.3c16.4-0.2,29.5-13.6,29.3-30   C70.1,102.8,56.7,89.7,40.3,89.9z M40.9,142.3c-12.6,0.1-22.9-9.9-23.1-22.5c-0.1-12.6,9.9-22.9,22.5-23.1   c12.6-0.1,22.9,10,23.1,22.5C63.6,131.9,53.5,142.2,40.9,142.3z"/>
	<circle fill="none" stroke="#DFDFDF" stroke-miterlimit="10" cx="40.7" cy="119.5" r="22.8"/>
	<path fill="none" stroke="#838484" stroke-width="1.1397" stroke-linecap="round" stroke-miterlimit="10" d="M54.1,96.4   c7.9,4.6,13.2,13.1,13.3,22.8c0.1,7.5-3,14.4-7.9,19.3"/>
	<path fill="none" stroke="#838484" stroke-width="1.1397" stroke-linecap="round" stroke-miterlimit="10" d="M27.7,96.1   c3.7-2.1,8.1-3.3,12.6-3.3"/>
	<path fill="none" stroke="#838484" stroke-width="1.1397" stroke-linecap="round" stroke-miterlimit="10" d="M41,146.3   c-9.2,0.1-17.4-4.4-22.3-11.5"/>
	<g>
		
			<path fill="none" stroke="#67C3CB" stroke-width="0.8464" stroke-linecap="round" stroke-linejoin="round" stroke-miterlimit="10" d="    M56.3,127.1c-1,2.7-2.7,5.2-5,7.3c-2.4,2.1-5.3,3.5-8.2,4.1"/>
		
			<path fill="none" stroke="#67C3CB" stroke-width="0.8464" stroke-linecap="round" stroke-linejoin="round" stroke-miterlimit="10" d="    M22.9,112.9c1-2.1,2.5-4.1,4.4-5.8c7.5-6.6,19-5.9,25.6,1.6"/>
		
			<path fill="none" stroke="#67C3CB" stroke-width="0.8464" stroke-linecap="round" stroke-linejoin="round" stroke-miterlimit="10" d="    M48.8,131.5c-6,5.3-15,4.7-20.3-1.3s-4.7-15,1.3-20.3"/>
	</g>
</g>
</svg>